<svg width="15" height="15" viewBox="0 0 15 15" fill="none" xmlns="http://www.w3.org/2000/svg">
<path d="M14.9679 11.6223C14.9255 11.4944 14.6556 11.3061 14.1583 11.0577C14.0236 10.9795 13.8317 10.8731 13.5833 10.7381C13.3348 10.6031 13.1091 10.4788 12.9068 10.3651C12.7042 10.2515 12.5143 10.1414 12.3368 10.035C12.3085 10.0137 12.2197 9.95169 12.0706 9.84848C11.9213 9.74557 11.7954 9.66919 11.6922 9.61938C11.5893 9.56986 11.488 9.54494 11.3885 9.54494C11.2465 9.54494 11.0691 9.6462 10.8562 9.84848C10.6432 10.051 10.4478 10.271 10.2703 10.5092C10.0928 10.7472 9.90459 10.9672 9.70593 11.1696C9.50697 11.3721 9.3435 11.4733 9.21581 11.4733C9.15171 11.4733 9.07178 11.4554 8.976 11.4201C8.88025 11.3846 8.80742 11.3542 8.75742 11.3297C8.70786 11.3047 8.62283 11.2551 8.50201 11.1803C8.38096 11.1057 8.31365 11.0649 8.29947 11.0577C7.32651 10.5179 6.49207 9.89994 5.79598 9.20415C5.10012 8.50795 4.48213 7.67358 3.94239 6.70052C3.9353 6.6863 3.89437 6.6188 3.81986 6.49813C3.74523 6.37735 3.69549 6.29223 3.67064 6.24238C3.64579 6.19272 3.6156 6.11988 3.58015 6.02402C3.5447 5.92816 3.52691 5.84831 3.52691 5.78432C3.52691 5.65656 3.62814 5.49312 3.83056 5.29424C4.03295 5.09547 4.25318 4.90719 4.49102 4.72976C4.72904 4.55234 4.94904 4.35696 5.1515 4.14398C5.35389 3.93088 5.45509 3.75341 5.45509 3.6114C5.45509 3.51203 5.43024 3.41073 5.38057 3.30778C5.33087 3.20461 5.25453 3.07871 5.1515 2.92949C5.04844 2.78035 4.98632 2.69166 4.96497 2.66311C4.85855 2.48568 4.74859 2.29572 4.63482 2.09329C4.52105 1.8909 4.39687 1.66531 4.26187 1.41676C4.12698 1.16833 4.02053 0.976497 3.94232 0.841571C3.69388 0.344517 3.50571 0.0745153 3.37784 0.0320524C3.3281 0.0107463 3.25347 0 3.15414 0C2.96228 0 2.71198 0.0354479 2.40306 0.106568C2.09403 0.177575 1.85085 0.252053 1.67328 0.3303C1.31816 0.479368 0.941782 0.912579 0.544019 1.62978C0.181815 2.29725 0.000732422 2.95789 0.000732422 3.61121C0.000732422 3.80282 0.0131579 3.98924 0.0380087 4.17051C0.0628596 4.35159 0.107263 4.55581 0.171256 4.78312C0.235137 5.01036 0.286667 5.17917 0.325622 5.28909C0.364615 5.39909 0.437414 5.59615 0.543981 5.88033C0.6504 6.16443 0.714393 6.33835 0.735699 6.40227C0.984245 7.09832 1.27899 7.7197 1.61984 8.26661C2.18067 9.17564 2.94601 10.1151 3.91542 11.0846C4.88486 12.054 5.82412 12.8193 6.73323 13.3803C7.28006 13.7212 7.90167 14.0159 8.5976 14.2646C8.66156 14.2858 8.83548 14.3496 9.11947 14.4564C9.40358 14.5629 9.6007 14.6357 9.7107 14.6748C9.82074 14.7139 9.98959 14.7654 10.2166 14.8294C10.4442 14.8934 10.6482 14.9378 10.8293 14.9629C11.0105 14.9874 11.1969 15 11.3886 15C12.0419 15 12.7025 14.8188 13.3701 14.4567C14.0873 14.0591 14.5204 13.6826 14.6695 13.3272C14.7479 13.1498 14.8222 12.9066 14.8932 12.5976C14.9645 12.2887 14.9998 12.0384 14.9998 11.8466C15.0001 11.7468 14.9893 11.6724 14.9679 11.6223Z" fill="#0D2F58"/>
</svg>
