<svg width="13" height="16" viewBox="0 0 13 16" fill="none" xmlns="http://www.w3.org/2000/svg">
<path d="M12 6.5C12 7.13134 11.7005 7.98729 11.1176 9.00006C10.5494 9.98742 9.77812 11.012 8.98565 11.9514C8.19639 12.887 7.4043 13.7168 6.80806 14.3138C6.6981 14.4239 6.59499 14.5259 6.5 14.619C6.40501 14.5259 6.3019 14.4239 6.19194 14.3138C5.5957 13.7168 4.80361 12.887 4.01435 11.9514C3.22188 11.012 2.45056 9.98742 1.88235 9.00006C1.29952 7.98729 1 7.13134 1 6.5C1 3.46243 3.46243 1 6.5 1C9.53757 1 12 3.46243 12 6.5Z" stroke="#0D2F58" stroke-width="2"/>
<circle cx="6.5" cy="6.5" r="1.5" fill="#0D2F58"/>
</svg>
